<svg id="visual" viewBox="0 0 960 540" width="960" height="540" xmlns="http://www.w3.org/2000/svg" xmlns:xlink="http://www.w3.org/1999/xlink" version="1.1"><rect x="0" y="0" width="960" height="540" fill="#001220"></rect><defs><linearGradient id="grad1_0" x1="43.8%" y1="0%" x2="100%" y2="100%"><stop offset="14.444444444444446%" stop-color="#001220" stop-opacity="1"></stop><stop offset="85.55555555555554%" stop-color="#001220" stop-opacity="1"></stop></linearGradient></defs><defs><linearGradient id="grad2_0" x1="0%" y1="0%" x2="56.3%" y2="100%"><stop offset="14.444444444444446%" stop-color="#001220" stop-opacity="1"></stop><stop offset="85.55555555555554%" stop-color="#001220" stop-opacity="1"></stop></linearGradient></defs><g transform="translate(960, 0)"><path d="M0 297C-33.6 278.4 -67.2 259.8 -101 243.9C-134.9 228.1 -169 215 -190.2 190.2C-211.4 165.4 -219.6 128.9 -230 95.3C-240.5 61.6 -253.3 30.8 -266 0L0 0Z" fill="#F15412"></path></g><g transform="translate(0, 540)"><path d="M0 -251C28.7 -242.9 57.4 -234.8 96.1 -231.9C134.7 -229 183.3 -231.4 210 -210C236.7 -188.6 241.5 -143.4 252.2 -104.5C262.9 -65.5 279.5 -32.8 296 0L0 0Z" fill="#F15412"></path></g></svg>